<?xml version="1.0" encoding="UTF-8"?>
<svg width="109px" height="66px" viewBox="0 0 109 66" version="1.1" xmlns="http://www.w3.org/2000/svg" xmlns:xlink="http://www.w3.org/1999/xlink">
    <!-- Generator: Sketch 40.1 (33804) - http://www.bohemiancoding.com/sketch -->
    <title>Artboard</title>
    <desc>Created with Sketch.</desc>
    <defs></defs>
    <g id="Page-1" stroke="none" stroke-width="1" fill="none" fill-rule="evenodd">
        <g id="Artboard">
            <g id="1475500805_cycling">
                <g id="Group">
                    <path d="M35.858,48.467 L39.86,48.729 C39.988,47.815 40.077,46.887 40.077,45.938 C40.077,44.987 39.988,44.059 39.859,43.145 L35.858,43.409 C35.99,44.233 36.078,45.076 36.078,45.938 C36.078,46.8 35.99,47.641 35.858,48.467 L35.858,48.467 Z" id="Shape" fill="#000000"></path>
                    <path d="M39.48,41.165 C38.58,37.491 36.679,34.214 34.063,31.651 L31.544,34.8 C33.331,36.641 34.678,38.904 35.42,41.43 L39.48,41.165 L39.48,41.165 Z" id="Shape" fill="#000000"></path>
                    <path d="M20.078,61.938 C11.252,61.938 4.075,54.759 4.076,45.938 C4.075,39.551 7.844,34.043 13.264,31.48 C13.459,31.388 13.648,31.284 13.848,31.199 C15.763,30.387 17.869,29.937 20.077,29.937 C23.135,29.937 25.984,30.814 28.416,32.308 L30.937,29.157 C27.808,27.129 24.085,25.938 20.079,25.938 C9.032,25.938 0.079,34.894 0.079,45.938 C0.078,51.735 2.559,56.94 6.499,60.591 C10.067,63.901 14.83,65.94 20.079,65.94 C29.478,65.94 37.34,59.448 39.481,50.711 L35.422,50.444 C33.47,57.075 27.336,61.938 20.078,61.938 L20.078,61.938 Z" id="Shape" fill="#000000"></path>
                    <path d="M88.465,29.955 C97.289,29.955 104.466,37.134 104.467,45.958 C104.466,54.779 97.288,61.958 88.466,61.958 C79.641,61.958 72.464,54.779 72.465,45.958 C72.464,38.911 77.048,32.926 83.386,30.796 L82.588,26.838 C74.411,29.349 68.465,36.957 68.465,45.958 C68.465,57.003 77.42,65.958 88.466,65.958 C99.512,65.958 108.467,57.003 108.467,45.958 C108.467,34.912 99.512,25.957 88.465,25.957 C87.807,25.957 87.154,25.993 86.512,26.056 L87.311,30.014 C87.691,29.986 88.075,29.955 88.465,29.955 L88.465,29.955 Z" id="Shape" fill="#000000"></path>
                    <path d="M82.588,26.838 L83.386,30.796 L85.94,43.463 C85.339,44.092 84.966,44.938 84.965,45.874 C84.965,47.807 86.532,49.374 88.466,49.374 C90.401,49.374 91.967,47.809 91.967,45.874 C91.966,44.437 91.1,43.206 89.862,42.667 L87.311,30.014 L86.512,26.056 L85.619,21.628 L81.538,21.628 L82.588,26.838 L82.588,26.838 Z" id="Shape" fill="#D1D9DA"></path>
                    <path d="M79.162,9.837 L79.674,12.378 C80.779,12.38 81.673,13.274 81.673,14.378 L44.408,14.376 C44.408,13.294 45.27,12.419 46.345,12.385 L44.824,4.263 L40.754,4.263 L41.75,9.574 L42.677,14.519 L43.157,17.082 L18.827,47.496 C19.198,47.792 19.639,47.934 20.077,47.934 C20.515,47.936 20.952,47.791 21.309,47.512 C21.429,47.418 21.539,47.309 21.639,47.186 L23.422,44.957 L24.042,44.184 L25.733,42.069 L31.545,34.802 L34.064,31.653 L43.643,19.677 L47.573,40.637 L49.941,40.483 C50.158,40.458 50.377,40.44 50.6,40.44 C50.95,40.44 51.29,40.475 51.622,40.539 L47.094,16.38 L70.876,16.38 L71.214,16.38 L76.404,16.38 L52.722,40.861 C53.996,41.394 55.021,42.394 55.596,43.646 L80.737,17.647 L81.541,21.626 L85.622,21.626 L83.245,9.835 L79.162,9.837 L79.162,9.837 L79.162,9.837 Z" id="Shape" fill="#3D3D3D"></path>
                    <path d="M23.578,45.936 C23.578,45.593 23.514,45.27 23.422,44.957 L21.639,47.186 C21.539,47.311 21.429,47.419 21.309,47.514 L23.122,47.632 C23.404,47.127 23.578,46.555 23.578,45.936 L23.578,45.936 Z" id="Shape" fill="#D1D9DA"></path>
                    <path d="M20.325,42.42 L18.513,44.686 C17.824,45.548 17.966,46.807 18.825,47.498 L43.155,17.084 L42.675,14.521 C42.618,14.577 42.558,14.628 42.507,14.692 L30.937,29.155 L28.416,32.306 L20.325,42.42 Z" id="Shape" fill="#454545"></path>
                    <path d="M40.753,4.263 L44.823,4.263 L50.249,4.263 C51.353,4.263 52.248,3.367 52.248,2.264 C52.248,1.728 52.035,1.243 51.692,0.885 C51.328,0.503 50.817,0.263 50.248,0.263 L42.457,0.263 L42.436,0.263 L37.247,0.263 C36.143,0.263 35.248,1.158 35.249,2.264 C35.248,2.753 35.431,3.197 35.724,3.544 C35.73,3.551 35.736,3.559 35.742,3.565 C35.805,3.638 35.873,3.706 35.946,3.769 C36.297,4.072 36.748,4.262 37.249,4.262 L40.753,4.263 L40.753,4.263 L40.753,4.263 Z" id="Shape" fill="#743927"></path>
                    <path d="M94.307,4.275 L82.033,4.275 L81.595,2.272 C81.17,1.563 80.34,1.155 79.488,1.329 C78.404,1.546 77.705,2.6 77.923,3.684 L79.163,9.836 L83.243,9.836 L82.523,6.272 L86.241,6.272 L86.386,6.272 L91.77,6.272 L91.807,6.272 L93.309,6.272 C95.309,6.277 96.927,7.897 96.932,9.9 L100.932,9.901 C100.932,8.153 100.337,6.549 99.35,5.264 C98.2,4.365 95.865,4.276 94.307,4.275 L94.307,4.275 Z" id="Shape" fill="#D1D9DA"></path>
                    <path d="M93.305,13.522 L90.061,13.526 C88.957,13.526 88.061,14.419 88.061,15.524 C88.061,16.629 88.957,17.524 90.061,17.524 L93.307,17.522 C97.516,17.522 100.928,14.11 100.93,9.901 L96.93,9.9 C96.926,11.9 95.307,13.521 93.305,13.522 L93.305,13.522 Z" id="Shape" fill="#743927"></path>
                    <path d="M97.205,3.356 C97.163,3.331 97.121,3.304 97.078,3.28 C96.887,3.169 96.691,3.073 96.498,2.982 C96.436,2.953 96.371,2.918 96.307,2.89 C95.262,2.442 94.18,2.273 93.09,2.274 L81.596,2.272 L82.034,4.275 L94.306,4.275 C95.866,4.276 98.201,4.365 99.347,5.264 C99.357,5.271 99.368,5.276 99.378,5.284 C99.349,5.248 99.317,5.22 99.287,5.184 C98.623,4.393 97.925,3.795 97.205,3.356 L97.205,3.356 Z" id="Shape" fill="#EFEFEF"></path>
                    <path d="M44.408,14.376 L81.673,14.378 C81.673,13.274 80.779,12.38 79.674,12.378 L63.188,12.378 L46.409,12.378 C46.388,12.378 46.367,12.384 46.345,12.385 C45.271,12.419 44.408,13.294 44.408,14.376 Z" id="Shape" fill="#454545"></path>
                    <path d="M46.136,49.141 L50.658,49.438 C52.56,49.408 54.097,47.85 54.098,45.938 C54.097,44.026 52.56,42.471 50.658,42.438 L46.135,42.733 C45.487,43.636 45.1,44.742 45.1,45.936 C45.1,47.133 45.486,48.236 46.136,49.141 L46.136,49.141 Z" id="Shape" fill="#D1D9DA"></path>
                    <path d="M52.722,40.861 C52.372,40.715 52.004,40.605 51.622,40.535 C51.29,40.473 50.949,40.435 50.6,40.435 L49.941,40.478 L47.573,40.632 L39.481,41.162 L35.421,41.429 L30.576,41.745 L25.733,42.061 L24.042,44.176 L30.576,43.746 L35.858,43.4 L39.859,43.136 L46.134,42.726 L50.657,42.429 C52.559,42.461 54.096,44.019 54.097,45.929 C54.096,47.84 52.559,49.398 50.657,49.429 L46.135,49.131 L39.86,48.722 L35.858,48.458 L30.576,48.111 L23.122,47.622 L21.309,47.503 C20.952,47.782 20.515,47.927 20.077,47.927 C19.639,47.927 19.198,47.783 18.827,47.489 C17.968,46.801 17.825,45.541 18.515,44.677 L20.327,42.41 L20.08,42.429 C18.146,42.429 16.579,43.993 16.58,45.929 C16.58,47.861 18.146,49.427 20.079,49.429 L30.578,50.116 L35.424,50.433 L39.483,50.7 L49.941,51.387 L50.602,51.43 C53.64,51.428 56.102,48.967 56.102,45.93 C56.102,45.114 55.918,44.338 55.598,43.641 C55.021,42.396 53.996,41.396 52.722,40.861 L52.722,40.861 Z" id="Shape" fill="#534E62"></path>
                </g>
            </g>
        </g>
    </g>
</svg>