<svg viewBox="0 0 118 114" xmlns="http://www.w3.org/2000/svg" class="homepage-bike">
	<g id="Page-1" fill="none" fill-rule="evenodd">
		<g id="riding-bike" transform="translate(0 -3)">
			<ellipse id="sun-dark" fill="#AB0738" fill-rule="nonzero" transform="rotate(-56.957 61.01 64.486)" cx="61.009" cy="64.486" rx="29.523" ry="29.492"/>
			<ellipse id="sun-light" fill="#FF6D00" fill-rule="nonzero" transform="rotate(-56.957 43.768 41.8)" cx="43.768" cy="41.801" rx="29.523" ry="29.492"/>
			<path id="polygon35" fill="#EDB29F" fill-rule="nonzero" d="M53.708 89.54l.488 6.164-1.484 2.205-4.102.41-.82-1.29-2.227-17.05-6.836-4.333 4.766-4.682-.625-5.892 9.726-5.854-.41-1.23 7.617-5.736 3.517 3.805 1.23 4.564-6.21 6.38-2.99 3.102-.878 7.024.058 6.965z"/>
			<path id="polygon43" fill="#30384C" fill-rule="nonzero" d="M38.844 81.54l-2.89-2.537-.43-.936 3.75-2.303 6.29 2.537-3.282 3.396z"/>
			<path id="polygon51" fill="#EDB29F" fill-rule="nonzero" d="M67.555 20.237l-.937-5.385 5.898-1.795 5.078-.546 3.203.586-.43 5.23-2.46 6.008-1.25.664-2.188-1.678-1.837.507-1.29 2.185z"/>
			<path d="M67.4 12.043l-.743 3.122s.35.936 1.758.74c1.406-.194 2.656-1.794 3.672-2.223 1.015-.43 1.757-.664 2.265-.04.508.625.703 1.25.703 1.25l.86.35s-.157-1.326.35-1.404c.51-.078 2.775-.312 2.775-.312l-2.696-1.834-1.562-1.64-3.477-.507-3.047 1.64-.86.858z" id="path59" fill="#546187" fill-rule="nonzero"/>
			<path d="M74.938 10.755s-1.484-.195-2.656.04c-1.172.233-2.11.858-2.735 1.365s-2.382.897-2.5.897c-.117 0-.625-2.887-.625-2.887L65.31 8.238l1.62-1.463.078-1.795 3.985.976 2.54 2.458 1.25 1.64.155.7z" id="path67" fill="#30384C" fill-rule="nonzero"/>
			<path d="M43.805 66.243s9.258-5.268 9.258-5.736c0-.468-.47-1.288-.47-1.288s1.642-2.986 3.283-4.04c1.64-1.053 3.925-2.926 3.925-2.926l-10.487-8.31 2.813-2.694 10.468-6.692 1.485-.624s1.815-2.283 3.34-2.576c1.522-.292 5.272-.936 5.272-.936l-.996-4.45-1.64-3.862s.702-.644-.176-2.165c-.88-1.522-1.102-3.22-3.51-3.57-2.408-.352-12.448 1.638-12.448 1.638L43.61 22.305l-7.422 6.01-4.453 4.214-4.917 7.02-.317 5.232 3.126 5.54 14.18 15.92z" id="path75" fill="#3D3D3D" fill-rule="nonzero"/>
			<path d="M66.774 5.253s3.32.35 4.61 1.522c1.288 1.17 1.953 1.756 2.85 3.16.9 1.405 1.173 2.225 1.876 2.615.703.39 4.492 2.03 4.96 2.224.47.195 1.368.547 1.642.312.273-.234-.704-5.58-.704-5.58l-4.61-3.98-5.038-.936-5.938-.215.352.878z" id="path83" fill="#AB0738" fill-rule="nonzero"/>
			<path d="M72.4 5.877c1.288 1.17 1.952 1.756 2.85 3.16.9 1.406 1.172 2.225 1.876 2.616.703.39 4.492 2.03 4.96 2.224.47.195.665.234.938 0 .273-.234-1.484-5.112-1.484-5.112l-4.61-3.98-3.554-1.093-5.938-.214.352.878s3.32.35 4.61 1.52z" id="path91" fill="#3D3D3D" fill-rule="nonzero"/>
			<path d="M71.032 10.95c.117.117-.04.35.47.898.506.546.897.78 1.014 1.21.117.43.586 10.028.586 10.028l1.367.234s-.157-5.658-.39-6.634c-.236-.975-.158-3.707-.118-3.98.04-.273.585-1.092.664-1.405.078-.31-.39-1.364-.39-1.364L71.03 10.95z" id="path99" fill="#30384C" fill-rule="nonzero"/>
			<path d="M65.64 30.734l6.564-1.327 8.437 9.6 5.548 3.902 5 4.993 2.266.937 1.24.663 3.193 1.112 1.875 3.746-.644 2.05s-1.406 1.463-2.227 1.58c-.82.117-2.46-.644-2.46-.644l-2.96-3.277-6.942-5.737-8.574-4.956-7.246-8.565-3.067-4.078z" id="path107" fill="#EDB29F" fill-rule="nonzero"/>
			<path d="M27.36 39.163s.625 3.668 3.984 8.116c3.36 4.447 13.594 16.544 13.907 17.012.313.468 6.72-3.043 6.72-3.043s-9.298-15.142-12.5-18.42c-3.204-3.277-7.813-8.896-8.204-9.6-.39-.7-3.906 5.933-3.906 5.933z" id="path115" fill="#8B8B8B" fill-rule="nonzero"/>
			<path d="M36.188 77.833s.586 1.248 1.328 1.99c.742.74 2.617 1.52 3.32 1.56.704.04 1.446.313 1.446.313l3.047 5.072-.197 2.693-3.75-1.638-6.367-3.824-.898-1.717 1.054-3.238 1.016-1.21z" id="path123" fill="#363636" fill-rule="nonzero"/>
			<path d="M47.868 97.46s1.72.195 2.89-.234c1.172-.43 3.438-1.522 3.438-1.522l1.523 1.99-2.305 2.77-4.766.898-.704-1.95-.078-1.952z" id="path131" fill="#30384C" fill-rule="nonzero"/>
			<path d="M25.407 116.21c-12.094 0-21.932-9.83-21.932-21.91 0-12.082 9.838-21.91 21.932-21.91 12.095 0 21.933 9.828 21.933 21.91 0 12.08-9.838 21.91-21.933 21.91zm0-42.144c-11.17 0-20.255 9.076-20.255 20.234 0 11.157 9.086 20.233 20.255 20.233 11.17 0 20.256-9.076 20.256-20.233 0-11.158-9.086-20.234-20.256-20.234z" id="path139" fill="#231F20" fill-rule="nonzero"/>
			<path d="M25.5 112C15.853 112 8 104.15 8 94.5S15.852 77 25.5 77C35.15 77 43 84.85 43 94.5S35.15 112 25.5 112zm0-33.135c-8.62 0-15.635 7.014-15.635 15.635 0 8.62 7.015 15.635 15.636 15.635 8.622 0 15.635-7.014 15.635-15.635 0-8.62-7.013-15.635-15.634-15.635z" id="path147" fill="#231F20" fill-rule="nonzero"/>
			<path d="M93.5 112c-9.65 0-17.5-7.85-17.5-17.5S83.85 77 93.5 77 111 84.85 111 94.5 103.15 112 93.5 112zm0-33.135c-8.62 0-15.635 7.014-15.635 15.635 0 8.62 7.014 15.635 15.635 15.635 8.62 0 15.635-7.014 15.635-15.635 0-8.62-7.014-15.635-15.635-15.635z" id="path155" fill="#231F20" fill-rule="nonzero"/>
			<path d="M47.946 99.41s.625.9 1.992.82c1.367-.077 3.242-.546 3.945-1.17.704-.624 1.524-1.17 1.524-1.17l4.062 1.91 3.554 1.406 3.555.664-.197 1.95-3.437.976-6.055.663-5.272-.313-3.438.39-.82-3.706.586-2.42z" id="path163" fill="#363636" fill-rule="nonzero"/>
			<path d="M93.22 116.21c-12.095 0-21.934-9.83-21.934-21.91 0-12.082 9.84-21.91 21.933-21.91s21.93 9.828 21.93 21.91c0 12.08-9.837 21.91-21.93 21.91zm0-42.144c-11.17 0-20.256 9.076-20.256 20.234 0 11.157 9.085 20.233 20.255 20.233 11.168 0 20.254-9.076 20.254-20.233 0-11.158-9.086-20.234-20.255-20.234z" id="path171" fill="#231F20" fill-rule="nonzero"/>
			<path d="M49.235 106.445c-1.38 0-1.924-.296-2.346-1.388-.292-.76-.186-2.4-.002-4.634l.065-.82c.123-1.652.162-5.794-.106-7.347-.285-1.646-1.214-6.595-2.09-9.688-.814-2.874.115-7.666.884-11.02l.043-.184c.315-1.38-.08-2.076-.37-2.582-.493-.668-10.935-12.126-17.827-19.656-1.526-1.52-2.38-3.578-2.38-5.77 0-1.693.333-3.118.988-4.232 8.016-14.298 23.07-23.28 39.43-23.58.042-.546.178-1.283.537-2.132.458-1.08.37-2.002-.252-2.672-.88-.947-1.282-2.197-1.298-2.25-.074-.234-.042-.488.088-.697.113-.18.292-.31.498-.365l-.205-.326c-.16-.258-.168-.584-.02-.85.147-.268.427-.432.733-.432h.417l-.393-1.18c-.083-.247-.044-.52.102-.735.146-.216.384-.352.645-.366.863-.052 8.524-.444 10.9.928 1.394.808 4.76 2.965 5.858 5.55.797 1.874.89 4.944.172 5.66-.37.374-1.17.714-1.908.703-2.384 7.996-2.726 8.364-2.874 8.525-.37.46-.86 1.077-1.71 1.125-.687.034-1.403-.31-2.165-1.074-.622-.622-.976-.78-1.11-.82-.036.022-.07.044-.107.065l-2.49 1.288c-.412.214-.915.053-1.13-.358-.214-.412-.053-.918.358-1.13l2.38-1.23c.157-.137.412-.285.778-.318.778-.08 1.555.368 2.51 1.32.48.48.856.57.88.586.1-.007.28-.232.386-.366.07-.088.132-.165.19-.23.21-.407 1.58-4.762 2.74-8.68.07-.237.243-.43.47-.53.23-.102.49-.093.71.018l.352.176c.033-.018.31-.112.474-.2.132-.56.17-2.412-.45-3.874-.624-1.47-2.55-3.246-5.156-4.752-1.302-.753-5.737-.87-8.863-.76l.41 1.232c.086.256.043.536-.114.756-.157.217-.412.347-.68.347h-.07l.078.123c.148.24.168.538.05.795-.118.256-.358.436-.638.478l-.075.012c.138.234.307.48.508.697 1.073 1.155 1.28 2.783.568 4.467-.53 1.25-.408 2.17-.407 2.18.034.24-.037.49-.196.672-.16.182-.39.29-.634.29-16.078 0-30.954 8.717-38.82 22.748-.51.87-.766 2.007-.766 3.397 0 1.745.68 3.382 1.914 4.613 6.628 7.24 17.75 19.422 18.06 19.965.366.636 1.02 1.787.562 3.803l-.042.186c-.422 1.83-1.698 7.395-.907 10.188.897 3.165 1.84 8.19 2.13 9.86.323 1.88.235 6.288.127 7.757l-.066.834c-.09 1.11-.28 3.42-.103 3.897.027.073.095.247.126.29.06.013.408.054 1.503-.007.802-.045 1.398-.2 1.97-.35.836-.215 1.62-.423 2.738-.224 1.044.186 4.605.764 6.597.355 1.955-.402 4.226-1.223 4.54-1.406.092-.06.123-.082.123-.386-.01-.16-.326-.59-.65-.605-.212-.015-.558-.002-.954.013-1.456.047-2.625.058-3.32-.238-.34-.145-.947-.49-1.64-.887-.957-.55-2.15-1.234-2.832-1.47-1.434-.492-2.58-1.63-2.99-2.967-.34-1.1-.923-5.4-.498-8.72.45-3.548.72-8.108.536-9.037-.223-1.11-.48-5.606.29-7.35.148-.336.302-.654.448-.958.445-.912.795-1.633.667-2.29-.195-1.008-4.125-10.428-5.443-12.895-.538-1.008-1.175-2.396-1.79-3.74-.825-1.797-1.678-3.655-2.225-4.455-.26-.378-.526-.793-.802-1.223-.77-1.2-1.646-2.56-2.496-3.302-.348-.305-.383-.834-.08-1.183.31-.348.838-.382 1.186-.08 1.027.9 1.97 2.364 2.8 3.66.27.415.527.817.776 1.183.63.918 1.472 2.756 2.366 4.7.61 1.338 1.226 2.68 1.745 3.65 1.208 2.262 5.343 11.993 5.612 13.363.233 1.208-.27 2.246-.807 3.346-.137.285-.284.583-.423.9-.544 1.234-.403 5.227-.18 6.345.277 1.38-.13 6.54-.517 9.577-.387 3.035.14 7.046.44 8.017.252.824 1.01 1.56 1.93 1.876.836.287 2.052.986 3.125 1.6.618.357 1.16.672 1.463.802.41.173 1.837.126 2.606.104.454-.017.846-.028 1.093-.015 1.26.062 2.24 1.277 2.24 2.28 0 .832-.272 1.384-.882 1.79-.538.36-3.217 1.255-5.12 1.646-2.14.44-5.445-.03-7.23-.347-.75-.132-1.282.003-2.018.195-.623.164-1.33.347-2.298.402-.354.02-.667.033-.947.033zm24.5-82.512c-.002 0-.002.002-.002.002v-.002z" id="path179" fill="#231F20" fill-rule="nonzero"/>
			<path d="M91.188 47.903L88.835 51.2 92 53.98l2.577 2.342s.615-.117.556-.614c-.058-.498.938-.264 1.055-.44.117-.175 1.172-.79 1.26-.995.088-.204 1.113-.468 1.142-.702.03-.233-.263-2.34-.263-2.34l-1.32-1.142-2.313-.585-3.506-1.6z" id="path187" fill="#FF6D00" fill-rule="nonzero"/>
			<path d="M91.232 47.903L88.88 51.2l3.163 2.78 2.578 2.342s1.48-.556 1.422-1.053c-.03-.25-1.3-1.066-2.08-2.138-.93-1.275-1.384-2.86-.56-4.206l.052-.086-2.222-.937z" id="path195" fill="#30384C" fill-rule="nonzero"/>
			<path d="M56.11 69.735c-.228 0-.455-.094-.622-.277-.31-.344-.284-.872.06-1.183 1.96-1.77 7.197-6.54 7.887-7.368.534-.64.615-3.047-.853-5.057-1.235-1.69-10.774-8.764-14.347-11.346-.21-.152-.337-.392-.346-.65-.01-.258.102-.506.3-.67.27-.23 6.692-5.59 9.385-7.094 2.613-1.46 8.3-4.888 8.356-4.922.398-.24.912-.112 1.152.283.24.398.112.912-.284 1.152-.056.034-5.766 3.477-8.402 4.95-2.01 1.122-6.455 4.715-8.3 6.23 3.098 2.258 12.418 9.132 13.84 11.08 1.672 2.29 2.04 5.615.788 7.117-.892 1.067-7.32 6.88-8.05 7.54-.16.143-.362.215-.563.215z" id="path203" fill="#231F20" fill-rule="nonzero"/>
			<path id="polygon211" fill="#383838" fill-rule="nonzero" d="M55.407 97.89L81.11 71.393l.625.858 3.437 10.77 7.188 9.834-6.406-16-2.5-9.208-1.953-6.165-2.11-5.932-1.327 2.265-1.328 3.043-13.28 1.873-7.697.996-.937 1.054 1.056 1.405 19.804-2.107 2.168 1.814-.058 2.692-5.274 7.024-9.844 10.536-5.234 5.463-3.516 3.278z"/>
			<path d="M98.337 58.184c-.204 0-.407-.073-.568-.22-.342-.313-.365-.843-.052-1.185.01-.01.404-.442.728-.874.114-.228.205-1.41.13-2.604-.045-.575-1.505-2.592-2.14-2.954-.4-.227-1.88-.425-3.02-.476-.408-.018-.736-.324-.792-.715-.18-.134-.504-.342-.898-.556-.324.235-.813.19-1.106-.078-.192-.177-4.733-4.338-6.073-5.836-.716-.8-3.27-2.726-5.32-4.273-1.87-1.41-2.94-2.223-3.27-2.59-.586-.65-4.41-5.627-5.183-8.288-.394-1.357-1.44-4.96-2.58-6.02-.784-.73-2.67-1.046-3.33-1.106-.462-.04-.803-.45-.76-.91.04-.46.495-.822.907-.76.303.026 2.984.295 4.33 1.548 1.296 1.21 2.23 3.973 3.045 6.78.652 2.24 4.17 6.913 4.818 7.633.24.267 1.724 1.386 3.034 2.376 2.22 1.673 4.735 3.57 5.56 4.492 1.072 1.196 4.455 4.333 5.585 5.376.333-.06.733-.037 1.14.183.89.48 1.334.826 1.556 1.106.897.068 2.46.244 3.19.66.975.557 2.898 3.03 2.98 4.303.057.86.123 2.943-.458 3.716-.377.5-.835 1-.835 1-.166.18-.39.272-.618.272z" id="path219" fill="#231F20" fill-rule="nonzero"/>
			<path id="polygon227" fill="#D23C17" fill-rule="nonzero" d="M70.993 64.526l1.72-3.238-4.61.78-2.58 3.512z"/>
			<path id="polygon235" fill="#6A738A" fill-rule="nonzero" d="M65.864 65.385l2.746-3.24-7.365.78-4.12 3.513z"/>
			<path id="polygon243" fill="#969696" fill-rule="nonzero" d="M74.543 77.28l-.774-3.583-3.023 3.563.293 4.345z"/>
			<path id="polygon251" fill="#BFBFBF" fill-rule="nonzero" d="M71.174 81.237l.012-4.245-5.13 5.337-.887 5.336z"/>
			<path d="M61.344 85.52l-2.617-2.264 1.367-3.082 3.203-2.732 1.407-1.248 1.68-2.108 2.343.625 1.094 1.796-1.25 1.56s-1.093 0-1.327.508c-.235.507.273 1.912.273 1.912s-2.578 3.2-2.734 3.356c-.156.156-3.438 1.678-3.438 1.678z" id="path259" fill="#FF6D00" fill-rule="nonzero"/>
			<path d="M54.41 64.856c-.412 0-.77-.303-.83-.722-.062-.46.258-.882.716-.946 5.892-.812 21.378-2.963 22.267-3.15.647-.137.975-.55.975-1.23 0-.57-.65-2.417-1.11-3.545-.176-.428.03-.92.46-1.092.428-.175.92.03 1.093.46.208.505 1.235 3.076 1.235 4.18 0 1.47-.885 2.57-2.307 2.867-1.128.238-21.515 3.05-22.38 3.172-.042.004-.08.006-.118.006z" id="path267" fill="#231F20" fill-rule="nonzero"/>
			<path d="M56.286 93.595c-.205 0-.412-.075-.575-.226-.335-.318-.352-.848-.035-1.187.143-.15 14.36-15.28 18.66-19.458 3.3-3.21 3.052-4.55 2.81-5.846-.056-.315-.11-.62-.133-.93-.053-.764-.394-.89-1.22-1.008l-.26-.04h-.003c-.82 0-12.176 1.54-19.595 2.58-.452.06-.885-.253-.95-.712-.063-.46.258-.884.715-.948 12.838-1.798 19.6-2.648 20.13-2.57l.202.03c.685.1 2.502.362 2.654 2.55.016.25.064.49.11.742.358 1.924.357 3.806-3.293 7.35C71.23 78.08 57.04 93.18 56.898 93.333c-.165.176-.388.263-.612.263z" id="path275" fill="#231F20" fill-rule="nonzero"/>
			<path d="M89.143 63.528c-.7 0-1.205-.097-1.333-.124-.452-.097-.742-.543-.645-.995.097-.453.535-.747.996-.645.104.022 2.51.516 4.162-1.097 1.095-1.07 1.81-3.046 1.058-4.372-.456-.8-1.342-1.127-2.2-1.44-1.75-.647-3.394-.47-4.46-.208l-8.717 2.28c-.454.116-.907-.15-1.024-.6-.118-.447.15-.904.598-1.022l8.73-2.282c1.872-.458 3.756-.368 5.453.258.98.36 2.318.854 3.077 2.185 1.21 2.126.21 4.882-1.344 6.4-1.413 1.382-3.162 1.66-4.35 1.66z" id="path283" fill="#231F20" fill-rule="nonzero"/>
			<path id="polygon291" fill="#393939" fill-rule="nonzero" d="M39.704 64.487l1.933-.117.75 2.845-2.742 4.706-13.71 21.57L46.5 97.85l-.878 2.225-11.66-1.434-10.08-3.804-.086-3.278z"/>
			<path d="M45.523 77.733c-.353 0-.683-.225-.798-.58l-4.41-13.577c-.146-.44.094-.913.536-1.055.44-.148.914.094 1.057.536l4.415 13.582c-.008.44-.1.912-.54 1.055-.086.027-.173.04-.26.04z" id="path299" fill="#231F20" fill-rule="nonzero"/>
			<path d="M45.787 101.02L29.85 98.56c-1.597-.244-6.88-1.156-7.835-2.587-.976-1.46.305-3.596.454-3.835l17.998-29.994c.165-.275.463-.425.8-.403.322.032.597.245.71.548l1.504 4.136c.088.243.058.512-.08.732L26.79 93.674l20.08 3.232c.457.073.768.503.693.96-.073.458-.512.767-.96.694l-21.33-3.434c-.278-.044-.514-.225-.63-.48-.116-.257-.096-.553.054-.79L41.764 66.61 41 64.516 23.9 93.014c-.377.607-.75 1.64-.49 2.03.417.503 3.548 1.377 6.696 1.86l15.937 2.46-.256 1.656z" id="path307" fill="#231F20" fill-rule="nonzero"/>
			<path d="M45.467 90.806s-2.25-1.183-3.258-1.774c-1.083-.635-6.232-3.543-7.374-3.98-1.745-.663-2.123-3.18-2.123-3.767 0-.462.376-.837.84-.837.462 0 .838.375.838.837 0 .45.37 1.947 1.042 2.203 1.337.508 6.77 3.596 7.627 4.1.984.577 3.185 1.735 3.187 1.736l-.78 1.482z" id="path315" fill="#231F20" fill-rule="nonzero"/>
			<path d="M59.505 100.97c-.036 0-.073 0-.11-.007-.46-.058-.783-.48-.723-.938.037-.29.057-.586.057-.887 0-3.104-2.098-5.82-5.1-6.607-.447-.116-.715-.575-.597-1.022.117-.448.567-.715 1.023-.598 3.74.98 6.35 4.363 6.35 8.228 0 .375-.024.742-.07 1.103-.054.423-.417.73-.83.73z" id="path323" fill="#231F20" fill-rule="nonzero"/>
			<path d="M92.907 55.842c-.225 0-.45-.09-.617-.268-.705-.763-1.975-2.087-2.387-2.395-.187-.142-.623-.438-1.158-.8-1.682-1.145-3.116-2.133-3.62-2.636-.404-.378-3.618-2.202-5.744-3.408-1.742-.99-3.247-1.84-3.884-2.257-1.8-1.17-5.255-5.39-6.705-7.39-1.634-2.257-4.75-6.302-4.75-6.303l1.328-1.02s3.135 4.07 4.78 6.34c1.662 2.29 4.846 6.048 6.263 6.968.597.387 2.153 1.27 3.8 2.204 3.947 2.238 5.666 3.244 6.102 3.68.432.43 2.276 1.685 3.378 2.433.564.385 1.024.697 1.22.845.668.498 2.417 2.386 2.615 2.598.313.34.293.87-.048 1.185-.16.15-.366.222-.57.222z" id="path331" fill="#231F20" fill-rule="nonzero"/>
			<path d="M76.5 8.414c-.315-.42-.78-.883-1.484-1.288.526.083 1.37.292 2.188.898.91.676 1.862 1.903 1.552 2.41-.127.207-.464.29-.732.233-.693-.146-.715-1.18-1.523-2.253z" id="path339" fill="#AB0738" fill-rule="nonzero"/>
			<path d="M69.87 8.516c-.33-.018-.74.018-1.218.193.252-.22.694-.542 1.315-.69.694-.164 1.67-.125 1.787.23.05.144-.047.34-.183.445-.35.274-.856-.133-1.7-.18z" id="path347" fill="#546187" fill-rule="nonzero"/>
			<path d="M69.87 9.882c-.33-.018-.74.018-1.218.193.252-.22.694-.54 1.315-.688.694-.165 1.67-.126 1.787.227.05.146-.047.34-.183.447-.35.274-.856-.133-1.7-.178z" id="path355" fill="#546187" fill-rule="nonzero"/>
			<path id="polygon363" fill="#AB0738" fill-rule="nonzero" d="M85.602 74.79l-3.125 1.95-.078-1.95 2.42-2.655z"/>
			<path id="polygon371" fill="#6A738A" fill-rule="nonzero" d="M87.633 87.022l-4.218-8.253-.645-2.81 2.05-1.698 2.696 6.907 3.223 7.315z"/>
			<path d="M35.134 79.53c-.234 0-.47-.1-.635-.29-.303-.35-.265-.88.087-1.183L43.1 70.72c.347-.303.878-.263 1.184.088.302.35.263.88-.088 1.182l-8.514 7.336c-.158.138-.354.203-.548.203z" id="path379" fill="#231F20" fill-rule="nonzero"/>
			<path d="M42.282 82.533c-.21 0-.42-.08-.582-.234-.333-.323-.342-.854-.022-1.187l3.28-3.394c.326-.334.555-.34.886-.023.333.322.342.852.022 1.185l-2.98 3.395c-.164.17-.384.256-.604.256z" id="path387" fill="#231F20" fill-rule="nonzero"/>
			<path d="M58.454 95.878c-.208 0-.417-.077-.58-.232-.335-.32-.346-.85-.026-1.185l22.656-23.646c.212-.22.533-.304.82-.23.297.078.526.31.6.607.02.08 2.026 8.045 3.976 11.414.714 1.235 1.987 2.947 3.322 4.63-.475-.973-.942-1.968-1.36-2.918-1.93-4.384-6.763-19.974-6.968-20.636-.178-.543-1.734-5.502-.39-8.108.38-.737.976-1.25 1.723-1.484.392-.122 1.188-.322 1.94-.508.54-.134 1.056-.262 1.358-.348.45-.128.91.134 1.036.578.127.447-.133.91-.578 1.036-.315.09-.85.22-1.41.362-.714.175-1.47.362-1.843.48-.324.1-.558.308-.736.652-.87 1.688.066 5.506.5 6.834.053.173 5.012 16.17 6.903 20.466 1.897 4.305 4.8 9.537 4.83 9.588.208.375.1.845-.248 1.092-.35.247-.83.19-1.115-.128-.26-.293-6.37-7.205-8.42-10.75-1.555-2.69-3.075-7.858-3.765-10.388L59.06 95.62c-.164.172-.384.258-.606.258z" id="path395" fill="#231F20" fill-rule="nonzero"/>
			<ellipse id="circle403" fill="#30384C" fill-rule="nonzero" cx="25.133" cy="94.377" rx="4.309" ry="4.305"/>
			<path d="M25.133 99.62c-2.893 0-5.246-2.352-5.246-5.242s2.353-5.242 5.246-5.242c2.893 0 5.248 2.352 5.248 5.242s-2.354 5.24-5.247 5.24zm0-8.61c-1.86 0-3.37 1.51-3.37 3.368 0 1.857 1.51 3.368 3.37 3.368s3.373-1.51 3.373-3.368c0-1.858-1.513-3.37-3.373-3.37z" id="path409" fill="#231F20" fill-rule="nonzero"/>
			<path d="M66.1 74.964s1.29.527 1.875 1.288c.586.76.967 1.346.967 1.346l.88-1.092-1.095-1.795-1.982-.536-.645.79z" id="path417" fill="#30384C" fill-rule="nonzero"/>
			<ellipse id="circle425" fill="#30384C" fill-rule="nonzero" cx="93.195" cy="94.377" rx="2.406" ry="2.404"/>
			<path d="M93.195 97.718c-1.844 0-3.344-1.498-3.344-3.34 0-1.842 1.5-3.342 3.345-3.342 1.844 0 3.343 1.5 3.343 3.342s-1.5 3.34-3.343 3.34zm0-4.81c-.81 0-1.47.66-1.47 1.47 0 .81.66 1.467 1.47 1.467.81 0 1.468-.658 1.468-1.467 0-.81-.66-1.47-1.468-1.47z" id="path431" fill="#231F20" fill-rule="nonzero"/>
			<path d="M62.047 86.904c-.176 0-.352-.054-.502-.166-3.95-2.95-4.023-3.24-4.1-3.55-.276-1.092 2.956-3.968 3.25-4.116.702-.35 2.042-.6 2.65.21.277.37.202.895-.168 1.173-.32.236-.758.214-1.05-.035-.144-.018-.432.028-.683.152-.346.212-1.598 1.555-2.15 2.274.647.558 2.04 1.64 3.255 2.55.37.277.445.802.17 1.172-.166.22-.42.336-.673.336zM62 80.287h.003H62z" id="path439" fill="#231F20" fill-rule="nonzero"/>
			<path d="M61.578 80.192c-.207 0-.414-.075-.577-.23-.336-.317-.35-.848-.032-1.184l2.774-2.927c.143-.15.34-.242.546-.26.178-.013.396-.053.538-.096-.005-.09-.018-.22-.042-.323-.064-.292.03-.6.253-.804l1.366-1.25c.264-.243.657-.288.974-.113l1.245.692.416-.36c.35-.304.88-.266 1.185.087.302.35.263.878-.087 1.182l-.86.742c-.267.227-.648.27-.958.097l-1.228-.682-.595.544c.02.333-.006.756-.2 1.103-.286.516-.945.734-1.545.82l-2.562 2.703c-.165.174-.388.262-.61.262z" id="path447" fill="#231F20" fill-rule="nonzero"/>
			<path d="M116.54 116.425H1.46c-.517 0-.937-.42-.937-.937 0-.518.42-.936.938-.936h115.08c.517 0 .937.418.937.936s-.42.937-.938.937z" id="floor" fill="#231F20" fill-rule="nonzero"/>
			<path d="M51.5 8.5h10.05" id="headline-short" stroke="#231F20" stroke-width="1.68" stroke-linecap="round"/>
			<path d="M42 5h19.6" id="headline-long" stroke="#231F20" stroke-width="1.68" stroke-linecap="round"/>
		</g>
	</g>
</svg>
